<?xml version="1.0" encoding="UTF-8"?>
<svg width="196px" height="50px" viewBox="0 0 196 50" version="1.1" xmlns="http://www.w3.org/2000/svg" xmlns:xlink="http://www.w3.org/1999/xlink">
    <!-- Generator: Sketch 52.5 (67469) - http://www.bohemiancoding.com/sketch -->
    <title>e-seller_Mailer</title>
    <desc>Created with Sketch.</desc>
    <g id="Review" stroke="none" stroke-width="1" fill="none" fill-rule="evenodd">
        <g id="Artboard">
            <g id="esellerHUB_Logo_White">
                <g id="Group-25">
                    <path d="M30.1561904,28.3968254 L28.6780952,26.9365079 L27.0857143,25.3492063 C26.5765794,24.8576184 25.8187319,24.7706207 25.2190477,25.1349207 C25.1224967,25.1953578 25.0330086,25.2672678 24.952381,25.3492063 C24.8881879,25.4101608 24.831846,25.479521 24.7847619,25.5555556 C24.3841759,26.1141821 24.4292607,26.8924309 24.8914286,27.3968254 L24.952381,27.4603174 L28,30.5 C28.2896156,30.7810322 28.6708586,30.9370468 29.0666667,30.9365079 C29.4632041,30.9411284 29.8458504,30.7845396 30.1333333,30.5 C30.4145883,30.2303448 30.5765077,29.85171 30.5808348,29.4535551 C30.5851619,29.0554001 30.431513,28.673044 30.1561904,28.3968254 Z M30.1561904,28.3968254 L28.6780952,26.9365079 L27.0857143,25.3492063 C26.5765794,24.8576184 25.8187319,24.7706207 25.2190477,25.1349207 C25.1224967,25.1953578 25.0330086,25.2672678 24.952381,25.3492063 C24.8881879,25.4101608 24.831846,25.479521 24.7847619,25.5555556 C24.3841759,26.1141821 24.4292607,26.8924309 24.8914286,27.3968254 L24.952381,27.4603174 L28,30.5 C28.2896156,30.7810322 28.6708586,30.9370468 29.0666667,30.9365079 C29.4632041,30.9411284 29.8458504,30.7845396 30.1333333,30.5 C30.4145883,30.2303448 30.5765077,29.85171 30.5808348,29.4535551 C30.5851619,29.0554001 30.431513,28.673044 30.1561904,28.3968254 Z M30.1561904,28.3968254 L28.6780952,26.9365079 L27.0857143,25.3492063 C26.5765794,24.8576184 25.8187319,24.7706207 25.2190477,25.1349207 C25.1224967,25.1953578 25.0330086,25.2672678 24.952381,25.3492063 C24.8881879,25.4101608 24.831846,25.479521 24.7847619,25.5555556 C24.3841759,26.1141821 24.4292607,26.8924309 24.8914286,27.3968254 L24.952381,27.4603174 L28,30.5 C28.2896156,30.7810322 28.6708586,30.9370468 29.0666667,30.9365079 C29.4632041,30.9411284 29.8458504,30.7845396 30.1333333,30.5 C30.4145883,30.2303448 30.5765077,29.85171 30.5808348,29.4535551 C30.5851619,29.0554001 30.431513,28.673044 30.1561904,28.3968254 Z M30.1561904,28.3968254 L28.6780952,26.9365079 L27.0857143,25.3492063 C26.5765794,24.8576184 25.8187319,24.7706207 25.2190477,25.1349207 C25.1224967,25.1953578 25.0330086,25.2672678 24.952381,25.3492063 C24.8881879,25.4101608 24.831846,25.479521 24.7847619,25.5555556 C24.3841759,26.1141821 24.4292607,26.8924309 24.8914286,27.3968254 L24.952381,27.4603174 L28,30.5 C28.2896156,30.7810322 28.6708586,30.9370468 29.0666667,30.9365079 C29.4632041,30.9411284 29.8458504,30.7845396 30.1333333,30.5 C30.4145883,30.2303448 30.5765077,29.85171 30.5808348,29.4535551 C30.5851619,29.0554001 30.431513,28.673044 30.1561904,28.3968254 Z M30.1561904,28.3968254 L28.6780952,26.9365079 L27.0857143,25.3492063 C26.5765794,24.8576184 25.8187319,24.7706207 25.2190477,25.1349207 C25.1224967,25.1953578 25.0330086,25.2672678 24.952381,25.3492063 C24.8881879,25.4101608 24.831846,25.479521 24.7847619,25.5555556 C24.3841759,26.1141821 24.4292607,26.8924309 24.8914286,27.3968254 L24.952381,27.4603174 L28,30.5 C28.2896156,30.7810322 28.6708586,30.9370468 29.0666667,30.9365079 C29.4632041,30.9411284 29.8458504,30.7845396 30.1333333,30.5 C30.4145883,30.2303448 30.5765077,29.85171 30.5808348,29.4535551 C30.5851619,29.0554001 30.431513,28.673044 30.1561904,28.3968254 Z M43.8704762,34.7460318 C43.4693641,35.5344139 43.016212,36.2928497 42.5142857,37.015873 C42.1651013,37.5955491 41.5878136,37.9848232 40.9371429,38.0793651 C40.4161871,38.1340403 39.8983601,37.9484392 39.52,37.5714286 L35.4666667,33.531746 C36.123648,32.8347677 36.666698,32.0304874 37.0742857,31.1507937 C37.6903736,29.8810512 38.0113834,28.478264 38.0114286,27.0555556 C38.0083619,24.4895586 36.981739,22.0402902 35.1771429,20.2936508 L33.5695238,18.7063492 L29.4247619,14.5952381 C27.5634603,12.7882981 25.111917,11.7866838 22.567619,11.7936508 C20.0201286,11.7688042 17.5624496,12.7729253 15.7104762,14.5952381 L14.1866667,16.1111111 C13.4867194,16.8064838 12.8931682,17.609448 12.4266667,18.4920634 C11.7171381,19.8336179 11.3474159,21.3413504 11.352381,22.8730159 C11.3572836,25.438612 12.3836008,27.8871511 14.1866667,29.6349207 L15.6647619,31.1031746 L19.9466667,35.3492063 C21.4936229,36.8683893 23.472071,37.8236367 25.5847619,38.0714286 C25.9843926,38.1191707 26.3863212,38.1430193 26.7885714,38.1428571 C29.1670484,38.1734472 31.4766607,37.3113993 33.2952381,35.7142857 L37.3333333,39.7539682 C38.2422919,40.6523373 39.4479574,41.1524249 40.7009523,41.1507937 C40.8734707,41.1624118 41.0465293,41.1624118 41.2190477,41.1507937 C42.7431687,40.9677574 44.1134616,40.0973987 44.967619,38.7698412 C44.967619,38.7698412 44.967619,38.7698412 44.967619,38.7698412 C45.5179336,37.9598938 46.0265857,37.1200879 46.4914286,36.2539682 L43.8704762,34.7460318 Z M34.3695238,29.8888889 C34.0299197,30.6142589 33.5679799,31.2701789 33.0057143,31.8253968 L31.4819048,33.3333333 C30.2107308,34.5800928 28.5268744,35.2680541 26.7809523,35.2539682 C26.3126274,35.2583312 25.8452004,35.2104392 25.3866667,35.1111111 C24.1502214,34.8546253 23.008938,34.2381913 22.0952381,33.3333333 L18.1790477,29.4603174 L16.3047619,27.6269841 C15.0630647,26.4233124 14.359025,24.7351127 14.3619048,22.968254 C14.3682727,21.9147199 14.6303699,20.8799818 15.1238096,19.9603174 C15.4415872,19.3514716 15.8476323,18.7973357 16.327619,18.3174603 L17.8514286,16.8174603 C19.115588,15.5633107 20.7990821,14.8715339 22.5447619,14.8888889 C24.2929061,14.8830362 25.9771906,15.5728979 27.2533333,16.8174603 L31.0628571,20.547619 L33.0514286,22.5238096 C35.0019057,24.4081432 35.5539258,27.3924697 34.4152381,29.8968254 L34.3695238,29.8888889 Z M28.6780952,26.9365079 L27.0857143,25.3492063 C26.5765794,24.8576184 25.8187319,24.7706207 25.2190477,25.1349207 C25.1224967,25.1953578 25.0330086,25.2672678 24.952381,25.3492063 C24.8881879,25.4101608 24.831846,25.479521 24.7847619,25.5555556 C24.3841759,26.1141821 24.4292607,26.8924309 24.8914286,27.3968254 L24.952381,27.4603174 L28,30.5 C28.2896156,30.7810322 28.6708586,30.9370468 29.0666667,30.9365079 C29.4632041,30.9411284 29.8458504,30.7845396 30.1333333,30.5 C30.414063,30.226839 30.5734272,29.8446073 30.5734272,29.4444444 C30.5734272,29.0442816 30.414063,28.6620499 30.1333333,28.3888889 L28.6780952,26.9365079 Z M30.1561904,28.3968254 L28.6780952,26.9365079 L27.0857143,25.3492063 C26.5765794,24.8576184 25.8187319,24.7706207 25.2190477,25.1349207 C25.1224967,25.1953578 25.0330086,25.2672678 24.952381,25.3492063 C24.8881879,25.4101608 24.831846,25.479521 24.7847619,25.5555556 C24.3841759,26.1141821 24.4292607,26.8924309 24.8914286,27.3968254 L24.952381,27.4603174 L28,30.5 C28.2896156,30.7810322 28.6708586,30.9370468 29.0666667,30.9365079 C29.4632041,30.9411284 29.8458504,30.7845396 30.1333333,30.5 C30.4145883,30.2303448 30.5765077,29.85171 30.5808348,29.4535551 C30.5851619,29.0554001 30.431513,28.673044 30.1561904,28.3968254 Z M30.1561904,28.3968254 L28.6780952,26.9365079 L27.0857143,25.3492063 C26.5765794,24.8576184 25.8187319,24.7706207 25.2190477,25.1349207 C25.1224967,25.1953578 25.0330086,25.2672678 24.952381,25.3492063 C24.8881879,25.4101608 24.831846,25.479521 24.7847619,25.5555556 C24.3841759,26.1141821 24.4292607,26.8924309 24.8914286,27.3968254 L24.952381,27.4603174 L28,30.5 C28.2896156,30.7810322 28.6708586,30.9370468 29.0666667,30.9365079 C29.4632041,30.9411284 29.8458504,30.7845396 30.1333333,30.5 C30.4145883,30.2303448 30.5765077,29.85171 30.5808348,29.4535551 C30.5851619,29.0554001 30.431513,28.673044 30.1561904,28.3968254 Z M30.1561904,28.3968254 L28.6780952,26.9365079 L27.0857143,25.3492063 C26.5765794,24.8576184 25.8187319,24.7706207 25.2190477,25.1349207 C25.1224967,25.1953578 25.0330086,25.2672678 24.952381,25.3492063 C24.8881879,25.4101608 24.831846,25.479521 24.7847619,25.5555556 C24.3841759,26.1141821 24.4292607,26.8924309 24.8914286,27.3968254 L24.952381,27.4603174 L28,30.5 C28.2896156,30.7810322 28.6708586,30.9370468 29.0666667,30.9365079 C29.4632041,30.9411284 29.8458504,30.7845396 30.1333333,30.5 C30.4145883,30.2303448 30.5765077,29.85171 30.5808348,29.4535551 C30.5851619,29.0554001 30.431513,28.673044 30.1561904,28.3968254 Z M30.1561904,28.3968254 L28.6780952,26.9365079 L27.0857143,25.3492063 C26.5765794,24.8576184 25.8187319,24.7706207 25.2190477,25.1349207 C25.1224967,25.1953578 25.0330086,25.2672678 24.952381,25.3492063 C24.8881879,25.4101608 24.831846,25.479521 24.7847619,25.5555556 C24.3841759,26.1141821 24.4292607,26.8924309 24.8914286,27.3968254 L24.952381,27.4603174 L28,30.5 C28.2896156,30.7810322 28.6708586,30.9370468 29.0666667,30.9365079 C29.4632041,30.9411284 29.8458504,30.7845396 30.1333333,30.5 C30.4145883,30.2303448 30.5765077,29.85171 30.5808348,29.4535551 C30.5851619,29.0554001 30.431513,28.673044 30.1561904,28.3968254 Z M30.1561904,28.3968254 L28.6780952,26.9365079 L27.0857143,25.3492063 C26.5765794,24.8576184 25.8187319,24.7706207 25.2190477,25.1349207 C25.1224967,25.1953578 25.0330086,25.2672678 24.952381,25.3492063 C24.8881879,25.4101608 24.831846,25.479521 24.7847619,25.5555556 C24.3841759,26.1141821 24.4292607,26.8924309 24.8914286,27.3968254 L24.952381,27.4603174 L28,30.5 C28.2896156,30.7810322 28.6708586,30.9370468 29.0666667,30.9365079 C29.4632041,30.9411284 29.8458504,30.7845396 30.1333333,30.5 C30.4145883,30.2303448 30.5765077,29.85171 30.5808348,29.4535551 C30.5851619,29.0554001 30.431513,28.673044 30.1561904,28.3968254 Z" id="Shape" fill="#F4A96F" fill-rule="nonzero"></path>
                    <path d="M46.5142857,36.1746032 L43.84,34.7857143 C46.0443974,30.6050851 46.7518344,25.7448306 45.8361904,21.0714286 C45.260286,18.0592839 44.0387922,15.2215032 42.2628571,12.7698412 L44.7390477,11.0634921 C46.7341118,13.8599831 48.1081353,17.0830614 48.7619048,20.5 C49.8177183,25.8372797 49.0212623,31.3916606 46.5142857,36.1746032 Z" id="Path" fill="#F3796E"></path>
                    <path d="M44.7390477,11.0634921 L42.2628571,12.7698412 C37.8174416,6.69070158 30.7598032,3.3138554 23.4361904,3.76190477 L23.2533333,0.793650793 C31.6119861,0.266181508 39.6719884,4.11873879 44.7390477,11.0634921 Z" id="Path" fill="#6187BE"></path>
                    <path d="M23.4361904,3.76190477 C22.4881671,3.81996827 21.5442863,3.93657529 20.6095238,4.11111111 C14.2887239,5.24857991 8.78804721,9.27230071 5.6152381,15.0793651 L2.94095238,13.7301588 C7.17193286,6.1132846 14.8163931,1.24469627 23.2533333,0.793650793 L23.4361904,3.76190477 Z" id="Path" fill="#D67FB4"></path>
                    <path d="M6.95619048,37.2380952 L4.4952381,38.952381 C2.5324616,36.1871644 1.17730073,33.0062647 0.525714286,29.6349207 C-0.518059827,24.2133144 0.338867256,18.5815644 2.94095238,13.7619048 L5.6152381,15.0793651 C3.31670859,19.3232319 2.55954768,24.2864667 3.48190477,29.0634921 C4.05262619,32.0200809 5.23854972,34.8104254 6.95619048,37.2380952 Z" id="Path" fill="#00AADB"></path>
                    <path d="M26.1638096,47.8968254 C26.1538941,48.3059541 25.9872151,48.6939354 25.7009456,48.974241 C25.414676,49.2545466 25.0326256,49.4038628 24.64,49.3888889 C16.7147447,49.4411101 9.23725602,45.5672063 4.4952381,38.952381 L6.95619048,37.2380952 C11.1130166,43.0485644 17.6759601,46.4520307 24.632381,46.4047619 C25.0262981,46.3876098 25.4103279,46.5359523 25.6982686,46.8164916 C25.9862092,47.0970308 26.1539394,47.4862654 26.1638096,47.8968254 Z" id="Path" fill="#D6E37E"></path>
                </g>
                <g id="Group" transform="translate(58.888889, 2.222222)" fill="#FFFFFF">
                    <g id="Group-23">
                        <path d="M5.03523036,16.122449 C4.32205293,16.1662964 3.62290496,15.9099474 3.10569106,15.414966 C2.62191698,14.8570329 2.37998409,14.1282718 2.43360433,13.3904762 L2.43360433,6.85986394 L1.15447154,6.85986394 C1.05179149,6.86267432 0.951604579,6.82785269 0.872628727,6.76190477 C0.789979731,6.67850671 0.746614548,6.56371368 0.753387533,6.4462585 L0.753387533,5.6952381 L2.49864499,5.47755102 L2.92140921,2.2122449 C2.94177806,2.1193908 2.99115076,2.03549597 3.06233062,1.97278911 C3.14463186,1.90521219 3.24879122,1.87035068 3.35501356,1.87482993 L4.29810298,1.87482993 L4.29810298,5.54285714 L7.36585366,5.54285714 L7.36585366,6.8707483 L4.29810298,6.8707483 L4.29810298,13.259864 C4.26944186,13.6238074 4.38648494,13.9842047 4.62330623,14.2612244 C4.841639,14.4858066 5.14589221,14.6048307 5.45799458,14.5877551 C5.63064131,14.5878009 5.80233932,14.5621246 5.96747968,14.5115647 C6.0932077,14.4598547 6.21622259,14.401729 6.33604336,14.337415 L6.6395664,14.1632653 C6.68966822,14.1145112 6.7544995,14.0838779 6.82384823,14.0761904 C6.94079382,14.0843172 7.04433304,14.1550112 7.09485094,14.2612244 L7.63685637,15.1537414 C7.30038999,15.4639503 6.90621691,15.7043787 6.47696477,15.8612244 C6.01704937,16.0386528 5.52790104,16.1272804 5.03523036,16.122449 Z" id="Path"></path>
                        <path d="M19.9403794,14.4571429 C19.7051638,14.7417266 19.4272122,14.9877629 19.1165311,15.1863946 C18.7762446,15.3986778 18.4124469,15.5703606 18.0325203,15.6979592 C17.6808244,15.8313942 17.3180781,15.9333778 16.9485094,16.0027211 C16.5616244,16.0677403 16.1700446,16.1005051 15.7777778,16.1006802 C15.0852166,16.1029214 14.3981292,15.9774866 13.7506776,15.7306122 C13.1461172,15.4901448 12.6019708,15.1184663 12.1571816,14.6421769 C11.6726486,14.1320187 11.3029652,13.5232633 11.0731707,12.8571429 C10.8038809,12.0734229 10.6754165,11.2478948 10.6937669,10.4190476 C10.6863201,9.71186274 10.7999895,9.00865433 11.0298103,8.34013606 C11.2523723,7.71192847 11.6031281,7.13730686 12.0596206,6.65306122 C12.4902604,6.18012609 13.0195653,5.80847201 13.6097561,5.56462586 C14.2672161,5.28256498 14.9761583,5.14168079 15.6910569,5.15102041 C16.2953882,5.14569596 16.8951521,5.2565325 17.4579946,5.47755102 C17.9848327,5.68162311 18.4617563,5.99715777 18.8563686,6.40272109 C19.2664621,6.82766684 19.5807079,7.33622439 19.7777778,7.89387756 C20.0139004,8.54193291 20.1278547,9.22844912 20.1138211,9.91836734 C20.1283939,10.1183082 20.0987809,10.319012 20.0271002,10.5061224 C19.943013,10.630839 19.7966467,10.6980224 19.6476964,10.6802721 L12.5691057,10.6802721 C12.5775886,11.2742322 12.6688073,11.8640786 12.8401084,12.4326531 C12.9863673,12.8886937 13.2222799,13.3106282 13.5338753,13.6734693 C13.8285082,14.0091654 14.2007494,14.2670602 14.6178862,14.4244898 C15.0532642,14.5940661 15.5167716,14.6790199 15.9837399,14.6748299 C16.3908208,14.6832429 16.796736,14.6281656 17.1869919,14.5115647 C17.4905507,14.4206184 17.7846099,14.3003276 18.0650407,14.152381 C18.278885,14.0509788 18.4853571,13.9345914 18.6829268,13.8040817 C18.8053019,13.7100113 18.9520754,13.6533296 19.1056911,13.6408163 C19.2467861,13.6334261 19.3818088,13.6991589 19.4634147,13.814966 L19.9403794,14.4571429 Z M18.4336043,9.46122449 C18.4367153,9.05833796 18.3744738,8.65763061 18.2493224,8.27482993 C18.1359007,7.93050467 17.9553353,7.61230062 17.7181572,7.33877551 C17.4806109,7.07507147 17.188263,6.86699167 16.8617887,6.7292517 C16.5022524,6.57580268 16.1141189,6.50157072 15.7235772,6.51156462 C14.9234648,6.45621749 14.1369383,6.74052272 13.5555556,7.2952381 C12.9981099,7.89047786 12.6580236,8.65783616 12.5907859,9.47210884 L18.4336043,9.46122449 Z" id="Shape" fill-rule="nonzero"></path>
                        <path d="M31.8644987,7.19727891 C31.8187371,7.26272831 31.7639956,7.32135762 31.701897,7.37142857 C31.635598,7.4185096 31.5553182,7.44154029 31.4742548,7.43673469 C31.3478972,7.43055336 31.22662,7.38488877 31.1273712,7.30612244 L30.6612467,7.0122449 C30.4423122,6.8979827 30.2137886,6.8032864 29.9783198,6.7292517 C29.1927377,6.5158018 28.3592519,6.56548007 27.604336,6.8707483 C27.2114846,7.05358463 26.8691134,7.33009404 26.6070461,7.67619048 C26.3197087,8.05429461 26.1130618,8.48780124 26,8.94965987 C25.8498658,9.51378692 25.7805154,10.0965088 25.7940379,10.6802721 C25.7876186,11.2607737 25.8605664,11.839414 26.0108401,12.4 C26.1380659,12.8540391 26.351563,13.2790803 26.6395664,13.6517007 C26.8939399,13.9911669 27.2294978,14.260709 27.6151761,14.4353741 C28.016802,14.618308 28.4533064,14.7111652 28.8943089,14.707483 C29.2622433,14.7150388 29.628786,14.659833 29.9783198,14.5442177 C30.2369239,14.4566782 30.4815538,14.3320311 30.704607,14.1741497 C30.8733434,14.0630564 31.0361682,13.9431642 31.1924119,13.814966 C31.296004,13.7177162 31.430237,13.659953 31.5718157,13.6517007 C31.7129108,13.6443104 31.8479334,13.7100432 31.9295393,13.8258503 L32.4498644,14.5115647 C32.2281402,14.796181 31.9650333,15.0456851 31.6693767,15.2517007 C31.3694844,15.4542356 31.0498651,15.6256381 30.7154471,15.7632653 C30.3646413,15.8968633 30.0015377,15.9953014 29.6314363,16.0571429 C29.2734598,16.1201484 28.9108536,16.1529161 28.5474254,16.155102 C27.9107086,16.1616937 27.2795438,16.0356867 26.6937669,15.785034 C26.1265398,15.5391062 25.622418,15.1669156 25.2195122,14.6965987 C24.7777639,14.1965903 24.4421194,13.6114443 24.2330623,12.9768708 C23.9900354,12.236275 23.8727726,11.459917 23.8861789,10.6802721 C23.8786889,9.94106543 23.9922156,9.20564579 24.2222222,8.50340136 C24.4232314,7.86564242 24.747377,7.27388138 25.1761518,6.76190477 C25.6099153,6.28765552 26.1430441,5.91591602 26.7371273,5.67346939 C27.4227118,5.38378259 28.1615256,5.242835 28.905149,5.25986394 C29.5812716,5.24393836 30.2532532,5.36998578 30.8780488,5.62993198 C31.4467641,5.8660318 31.9627431,6.21388889 32.395664,6.65306122 L31.8644987,7.19727891 Z" id="Path"></path>
                        <path d="M38.4552846,6.71836734 C38.888964,6.25101346 39.3984473,5.86090076 39.9620597,5.56462586 C40.5545309,5.26936516 41.2085481,5.12011818 41.8699187,5.1292517 C42.3943179,5.11818687 42.9151431,5.21832641 43.398374,5.42312926 C43.8146939,5.61257756 44.1846842,5.89120292 44.4823848,6.23945578 C44.7886184,6.61885373 45.0170363,7.05535892 45.1544716,7.52380952 C45.3119347,8.05710897 45.3886727,8.61114339 45.3821138,9.16734693 L45.3821138,15.9482993 L43.495935,15.9482993 L43.495935,9.16734693 C43.5408624,8.49865154 43.348881,7.83553976 42.9539296,7.2952381 C42.5318771,6.82242566 41.915146,6.57311787 41.2845529,6.62040817 C40.7424889,6.62283003 40.209626,6.76126639 39.7344173,7.02312926 C39.2362486,7.30939297 38.7892548,7.6772767 38.4119241,8.11156462 L38.4119241,15.9482993 L36.5365853,15.9482993 L36.5365853,0.459863946 L38.4119241,0.459863946 L38.4552846,6.71836734 Z" id="Path"></path>
                        <path d="M51.7127371,5.48843538 L51.7127371,17.2870748 C51.7160696,17.6313048 51.6610853,17.9735977 51.5501356,18.2993198 C51.4544632,18.5984268 51.2954479,18.8731981 51.0840109,19.1047619 C50.871074,19.3388573 50.6078821,19.5212382 50.3143631,19.6380952 C49.9693751,19.7743486 49.6010053,19.8409258 49.2303523,19.8340136 C49.0501414,19.8522732 48.8685578,19.8522732 48.6883469,19.8340136 C48.5228686,19.8010063 48.3624816,19.7461058 48.2113821,19.6707483 L48.2113821,19.1591837 C48.2211001,19.1109758 48.2533952,19.070442 48.298103,19.0503401 C48.3444262,19.0392393 48.3927011,19.0392393 48.4390244,19.0503401 L48.6666667,19.0503401 C49.235061,19.1347463 49.8127318,18.9769154 50.2601626,18.614966 C50.559537,18.2446762 50.7068708,17.7736197 50.6720867,17.2979592 L50.6720867,5.48843538 L51.7127371,5.48843538 Z M52.1463414,1.88571429 C52.1446667,2.0069879 52.1149808,2.12621613 52.0596206,2.2340136 C52.007657,2.34275416 51.9380546,2.44206653 51.8536586,2.52789116 C51.7654966,2.61157872 51.6625621,2.67802101 51.5501356,2.72380952 C51.4420028,2.77600728 51.3232138,2.80209843 51.203252,2.8 C51.0796843,2.80340542 50.9570781,2.77729189 50.8455284,2.72380952 C50.7348974,2.68073163 50.6349984,2.61386051 50.5528456,2.52789116 C50.4684496,2.44206653 50.3988471,2.34275416 50.3468834,2.2340136 C50.3035682,2.12305771 50.2815017,2.00488917 50.2818428,1.88571429 C50.2819907,1.75950494 50.3039989,1.63428303 50.3468834,1.51564626 C50.3988471,1.4069057 50.4684496,1.30759332 50.5528456,1.22176871 C50.6320239,1.13230049 50.7328249,1.06482548 50.8455284,1.02585034 C50.9570781,0.972367971 51.0796843,0.946254447 51.203252,0.949659864 C51.3232138,0.947561433 51.4420028,0.973652588 51.5501356,1.02585034 C51.6646481,1.06750413 51.7683769,1.13445909 51.8536586,1.22176871 C51.9380546,1.30759332 52.007657,1.4069057 52.0596206,1.51564626 C52.1225172,1.62945556 52.1595369,1.7558362 52.1680217,1.88571429 L52.1463414,1.88571429 Z" id="Shape" fill-rule="nonzero"></path>
                        <path d="M61.4796748,5.32517007 C62.1673693,5.30940116 62.8506649,5.43920091 63.4850949,5.70612244 C64.0597558,5.94986546 64.5714032,6.32213778 64.9810298,6.79455782 C65.4012262,7.29087401 65.7149032,7.8689132 65.902439,8.49251701 C66.1229421,9.19674067 66.2326628,9.93119749 66.2276422,10.6693878 C66.2340977,11.4076798 66.1243436,12.1423602 65.902439,12.8462586 C65.7149032,13.4698623 65.4012262,14.0479016 64.9810298,14.5442177 C64.5751902,15.0207771 64.0624942,15.3938123 63.4850949,15.6326531 C62.196088,16.1410518 60.7632616,16.1410518 59.4742548,15.6326531 C58.9001559,15.3879101 58.3887177,15.0157901 57.9783198,14.5442177 C57.5547596,14.0485032 57.2374178,13.4705103 57.0460704,12.8462586 C56.8278391,12.1417682 56.7217454,11.4071011 56.7317073,10.6693878 C56.7233554,9.93178091 56.8294129,9.19736431 57.0460704,8.49251701 C57.2374178,7.86826518 57.5547596,7.29027232 57.9783198,6.79455782 C58.3933064,6.32806074 58.9035303,5.95682426 59.4742548,5.70612244 C60.1090559,5.44044308 60.7920867,5.31069358 61.4796748,5.32517007 Z M61.4796748,15.3061224 C62.0391548,15.3204512 62.5947367,15.2088813 63.1056911,14.9795919 C63.5641281,14.7698481 63.965647,14.452548 64.2764228,14.0544218 C64.5988996,13.6255943 64.8345929,13.1374928 64.9701897,12.6176871 C65.1245868,11.9839946 65.1938552,11.3324099 65.1761518,10.6802721 C65.1819517,10.0417629 65.1054354,9.40518431 64.9485094,8.78639456 C64.8129177,8.26325416 64.5772874,7.77158638 64.2547426,7.33877551 C63.9443252,6.93757937 63.5429398,6.61665304 63.0840109,6.40272109 C62.5730564,6.17343158 62.0174746,6.06186166 61.4579946,6.07619048 C60.8987033,6.06403644 60.3435916,6.17551196 59.8319783,6.40272109 C59.3658096,6.63545866 58.9665631,6.98388359 58.6720867,7.41496599 C58.3417263,7.84444074 58.1019809,8.33699892 57.9674797,8.86258503 C57.8015346,9.47984409 57.7212823,10.1171569 57.7289973,10.7564626 C57.719144,11.3994706 57.7994247,12.0406734 57.9674797,12.6612244 C58.1076384,13.1680902 58.3471912,13.6417504 58.6720867,14.0544218 C58.9763597,14.454585 59.3749456,14.772511 59.8319783,14.9795919 C60.3502419,15.209956 60.9131066,15.3215011 61.4796748,15.3061224 Z" id="Shape" fill-rule="nonzero"></path>
                        <path d="M78.1842819,6.89251701 L78.0867209,6.97959183 C78.0442834,6.99229588 77.999077,6.99229588 77.9566396,6.97959183 C77.850161,6.96351548 77.7514927,6.91397994 77.6747968,6.83809523 C77.5220368,6.72699934 77.362761,6.62522833 77.197832,6.53333333 C76.9527987,6.40177404 76.6948791,6.29599661 76.4281843,6.21768708 C76.0760277,6.11587224 75.710551,6.06816634 75.3441734,6.07619048 C74.7919737,6.0651001 74.244149,6.17659887 73.7398374,6.40272109 C73.2784078,6.60751059 72.8730599,6.92116379 72.5582656,7.3170068 C72.2293474,7.75045552 71.9831102,8.24125009 71.8319783,8.76462586 C71.6645944,9.38901983 71.5843346,10.0337199 71.5934959,10.6802721 C71.5849596,11.3418262 71.6688847,12.0013124 71.8428184,12.6394558 C71.9915939,13.1604333 72.2381067,13.6480827 72.5691057,14.0761904 C72.875484,14.4590417 73.2697719,14.7615669 73.7181572,14.9578231 C74.184244,15.1708168 74.6911881,15.2785641 75.203252,15.2734693 C75.6297701,15.2830116 76.0548492,15.2204612 76.4607046,15.0884353 C76.7563242,14.9901607 77.0399601,14.8587174 77.3062331,14.6965987 C77.4880359,14.5866131 77.6586781,14.4590203 77.8157181,14.3156462 C77.8977334,14.2213517 78.0080733,14.1564057 78.1300813,14.1306122 C78.2162323,14.1268058 78.2982257,14.1679698 78.3468834,14.2394558 L78.6070461,14.5768708 C78.4291771,14.7967754 78.2253318,14.9941428 78,15.1646259 C77.7445266,15.3523996 77.4680264,15.509479 77.1761518,15.6326531 C76.8528116,15.7750958 76.5146869,15.8809628 76.1680217,15.9482993 C75.8112423,16.0210431 75.4480713,16.0575084 75.0840109,16.0571429 C74.4622261,16.0655778 73.8455686,15.9432259 73.2737128,15.6979592 C72.7267614,15.4438221 72.2420111,15.0722732 71.8536586,14.6095238 C71.4432291,14.1105972 71.1305872,13.5381584 70.9322493,12.922449 C70.5058484,11.4657276 70.5058484,9.91658531 70.9322493,8.45986394 C71.1247608,7.83836148 71.4379182,7.26127969 71.8536586,6.76190477 C72.2596651,6.29025469 72.7676196,5.91797171 73.3387533,5.67346939 C73.9717961,5.40091137 74.6555336,5.2673167 75.3441734,5.28163266 C75.959558,5.27040238 76.5710881,5.38137097 77.1436314,5.60816327 C77.64863,5.81599122 78.1115263,6.11478207 78.5094851,6.48979592 L78.1842819,6.89251701 Z" id="Path"></path>
                        <path d="M84.1138211,0.655782313 L84.1138211,9.98367347 L84.5907859,9.98367347 C84.684397,9.99496426 84.7790176,9.99496426 84.8726288,9.98367347 C84.9817118,9.93839168 85.0783696,9.86746886 85.1544716,9.77687074 L89.3387533,5.79319728 C89.4067228,5.71915674 89.4831283,5.65339901 89.5663957,5.59727891 C89.6647829,5.55151268 89.7723624,5.529164 89.8807588,5.53197279 L90.7588076,5.53197279 L86.1626017,9.88571429 C86.0508003,10.0250344 85.9149402,10.1430146 85.7615177,10.2340136 C85.8652196,10.2838969 85.9603563,10.3500297 86.0433604,10.429932 C86.1308942,10.5052649 86.2107787,10.5891213 86.2818428,10.6802721 L91.1056911,15.9591837 L90.2384823,15.9591837 C90.1489018,15.9757524 90.0570603,15.9757524 89.9674797,15.9591837 C89.8780876,15.9159671 89.8028642,15.8479898 89.7506776,15.7632653 L85.4146341,11.0503401 L85.2520326,10.8979592 C85.2028891,10.8575056 85.1481064,10.8245019 85.0894309,10.8 C85.0249721,10.7876455 84.9587677,10.7876455 84.8943089,10.8 L84.6233062,10.8 L84.1571816,10.8 L84.1571816,16.0789116 L83.1490514,16.0789116 L83.1490514,0.840816327 L84.1138211,0.655782313 Z" id="Path"></path>
                        <path d="M94.8563686,10.3102041 L94.8563686,10.5061224 C94.8426563,11.205224 94.9340178,11.9024048 95.1273712,12.5741497 C95.2851964,13.1220708 95.550563,13.6327659 95.9078591,14.0761904 C96.2350797,14.472829 96.6511043,14.7861211 97.1219512,14.9904762 C97.62783,15.1968314 98.1694401,15.3004163 98.7154471,15.2952381 C99.1729524,15.3001564 99.628939,15.2415519 100.070461,15.1210884 C100.407003,15.0209646 100.733597,14.8897933 101.04607,14.7292517 C101.262372,14.6158494 101.469029,14.4847964 101.663957,14.337415 C101.756321,14.2472277 101.87328,14.1866153 102,14.1632653 C102.083333,14.1589006 102.162365,14.2006663 102.205962,14.2721089 L102.476965,14.6095238 C102.287068,14.8375473 102.064171,15.0356712 101.815718,15.1972789 C101.527112,15.3876251 101.218016,15.5446294 100.894309,15.6653061 C100.54224,15.7975971 100.179594,15.8995526 99.8102981,15.970068 C99.4247861,16.0476157 99.032733,16.08771 98.6395664,16.0897959 C97.9713571,16.0952851 97.3085226,15.969572 96.6883469,15.7197279 C96.1137288,15.4703783 95.5996938,15.0990596 95.1815718,14.6312926 C94.744756,14.1190412 94.4164871,13.5227827 94.2168022,12.8789116 C93.9760697,12.1115761 93.8589662,11.3105533 93.8699187,10.5061224 C93.8625307,9.79982286 93.9724377,9.09722597 94.195122,8.42721089 C94.3904563,7.82333858 94.7036937,7.26461047 95.1165311,6.78367347 C95.5226786,6.31688346 96.0259451,5.94532416 96.5907859,5.6952381 C97.219492,5.43459576 97.8944016,5.30498784 98.5745258,5.31428571 C99.1346276,5.30876362 99.6904893,5.41225806 100.211382,5.61904762 C100.702996,5.81574631 101.146657,6.11644012 101.512195,6.50068027 C101.903329,6.91142673 102.202676,7.40124279 102.390244,7.93741497 C102.61742,8.56491676 102.727657,9.22903636 102.715447,9.89659864 C102.726008,10.0059947 102.703333,10.1160379 102.650407,10.2122449 C102.599277,10.2722683 102.522935,10.3045437 102.444444,10.2993197 L94.8563686,10.3102041 Z M101.815718,9.66802721 C101.820108,9.15394601 101.739519,8.64269564 101.577236,8.15510204 C101.426766,7.75385612 101.202448,7.38462081 100.915989,7.06666667 C100.623669,6.74565336 100.264723,6.49299386 99.8644987,6.32653061 C99.4518114,6.1569802 99.0095627,6.07186989 98.5636857,6.07619048 C98.0707011,6.06754681 97.5808336,6.15630477 97.1219512,6.33741497 C96.7120931,6.49331714 96.34184,6.73868166 96.0379403,7.05578231 C95.7228936,7.36832773 95.4691656,7.73755032 95.2899729,8.14421769 C95.090119,8.61947953 94.9622344,9.12209938 94.9105691,9.63537414 L101.815718,9.66802721 Z" id="Shape" fill-rule="nonzero"></path>
                        <path d="M115.712737,5.48843538 L109.728997,19.322449 C109.690321,19.4118496 109.635151,19.4930966 109.566396,19.5619048 C109.482133,19.6247154 109.378452,19.6555609 109.273713,19.6489796 L108.536585,19.6489796 L110.368564,15.5673469 L105.95664,5.48843538 L106.780488,5.48843538 C106.869725,5.48525756 106.957466,5.5120705 107.02981,5.56462586 C107.086504,5.61131158 107.13113,5.67105522 107.159892,5.73877551 L110.704607,13.8802721 C110.704607,13.9891157 110.780488,14.0979592 110.813008,14.2068027 C110.845528,14.3156462 110.867209,14.4244898 110.899729,14.5333333 L111.00813,14.2068027 L111.127371,13.8802721 L114.596206,5.73877551 C114.631126,5.66566912 114.683206,5.60217148 114.747968,5.5537415 C114.807593,5.509809 114.879989,5.4868541 114.95393,5.48843538 L115.712737,5.48843538 Z" id="Path"></path>
                    </g>
                    <g id="Group-24" transform="translate(0.000000, 24.444444)">
                        <path d="M4.29760074,14.8123961 C4.29760074,16.8538171 5.14064757,17.8793651 6.84612159,17.8793651 C7.31479734,17.8933366 7.78183316,17.8178087 8.22212904,17.6568406 C8.54268231,17.5295982 8.84816389,17.3673631 9.13300722,17.1730914 L9.84039133,16.6893424 C10.0620737,16.5452328 10.3220622,16.471067 10.5865362,16.4764928 C10.7083384,16.4754646 10.8283953,16.5054317 10.9353832,16.5635677 C11.0498792,16.62042 11.1519729,16.6993362 11.2357792,16.7957672 L12.2047986,17.918065 C11.7630688,18.3673398 11.2867947,18.7814036 10.7803401,19.1564626 C10.3479641,19.493307 9.88006578,19.7820402 9.38495224,20.0175359 C8.89764391,20.2399204 8.38751196,20.4086161 7.86359189,20.5206349 C7.29203124,20.6298854 6.71095354,20.6817439 6.12904729,20.6754347 C5.37829637,20.687085 4.63307252,20.5455172 3.93906359,20.2594104 C3.29490031,19.997622 2.71605134,19.5980176 2.24327976,19.0887377 C1.75547091,18.5651357 1.38251774,17.9456212 1.14828791,17.2698412 C0.878543739,16.5057712 0.747290604,15.6998317 0.760680177,14.8897959 C0.759794993,14.170733 0.83778139,13.4537357 0.993244817,12.7516251 C1.14994009,12.0831309 1.3806962,11.434134 1.68124854,10.8166289 C1.97483287,10.2024626 2.33905321,9.62452113 2.7665502,9.09448223 C3.1865812,8.57791268 3.67945459,8.12492028 4.22976939,7.74965987 C5.3646839,6.9533679 6.71872823,6.52751351 8.10584672,6.53061224 C8.76625338,6.51393832 9.42384982,6.6222714 10.0438854,6.84988662 C10.5471382,7.03729084 11.0130456,7.31246537 11.4198929,7.66258503 C11.7725827,7.97497327 12.056373,8.35715917 12.2532494,8.78488284 C12.4392776,9.16819827 12.5385272,9.58769558 12.5439552,10.0136054 C12.5493944,10.6025211 12.4201399,11.1849082 12.1660378,11.7164021 C11.8410381,12.2866692 11.3604921,12.7530402 10.7803401,13.0612244 C10.0021208,13.535474 9.1557119,13.8878627 8.27058001,14.1061224 C6.96029857,14.439163 5.62514336,14.6656537 4.27822036,14.7833711 L4.29760074,14.8123961 Z M7.8539017,9.00740741 C7.47459253,9.00789072 7.10028808,9.09387867 6.75890986,9.25895691 C6.39697844,9.42757924 6.06866319,9.66031713 5.78989052,9.94588058 C5.50166232,10.2741353 5.25736342,10.6383823 5.06312602,11.0294785 C4.83836412,11.4757822 4.66602692,11.9465306 4.54954577,12.4323507 C5.34585164,12.322368 6.13525851,12.1673187 6.91395294,11.9679517 C7.39968568,11.8500043 7.86853296,11.6712119 8.30934079,11.4358277 C8.58706002,11.2976937 8.81915172,11.0827581 8.97796412,10.8166289 C9.08400073,10.5895933 9.13701477,10.3414801 9.13300722,10.0910053 C9.13537741,9.96105939 9.1089034,9.83220122 9.05548568,9.71368103 C9.00820364,9.58006649 8.92826606,9.46034836 8.82292103,9.36538171 C8.70590734,9.25227642 8.56757162,9.16348592 8.41593291,9.10415722 C8.24129931,9.04463552 8.05780116,9.01519104 7.87328209,9.01708239 L7.8539017,9.00740741 Z" id="Shape" fill-rule="nonzero"></path>
                        <polygon id="Path" points="14.6564174 10.9133787 21.1197763 10.9133787 20.751549 13.815873 14.336641 13.815873"></polygon>
                        <path d="M34.5019333,4.73106576 C34.3915891,4.89510904 34.2539393,5.03908714 34.0949452,5.15676493 C33.9510159,5.25010226 33.7819828,5.29735723 33.6104356,5.29221467 C33.4029894,5.287354 33.2025847,5.21613543 33.0387142,5.08904006 L32.3700909,4.62464097 C32.0890924,4.44650128 31.794207,4.29120149 31.4882832,4.16024188 C31.0978674,4.01587932 30.683525,3.94693066 30.2673189,3.95706727 C29.8680432,3.95113378 29.4709322,4.01666891 29.0948054,4.15056689 C28.7732039,4.26450533 28.4816533,4.44974622 28.2420684,4.69236583 C28.0105231,4.92020038 27.8347686,5.19831751 27.7284882,5.50506424 C27.6156726,5.81531574 27.5566856,6.14250691 27.5540648,6.47256236 C27.5403776,6.81987853 27.6464081,7.16137571 27.8544608,7.44006047 C28.0771247,7.71468174 28.3500697,7.94451497 28.6587468,8.11730914 C29.0175484,8.33273252 29.3974343,8.51103101 29.7924994,8.64943311 C30.2188679,8.8042328 30.6549267,8.97838247 31.0909853,9.15253212 C31.5356391,9.33324372 31.9692218,9.54000289 32.3894712,9.77173091 C32.8107264,9.9969195 33.1934251,10.2875752 33.5232239,10.6328042 C33.8666828,10.9897269 34.1366492,11.4104763 34.3178197,11.8712018 C34.5368529,12.4285113 34.6422741,13.0238643 34.6279059,13.6223734 C34.6334279,14.5482071 34.4658247,15.4669367 34.133706,16.3313681 C33.4898281,18.0276051 32.1758671,19.3849826 30.4998836,20.0852608 C29.5792193,20.4679172 28.5899984,20.6588664 27.5928256,20.6464097 C27.035323,20.6474594 26.4794766,20.5857957 25.9358024,20.462585 C25.3995283,20.341119 24.8768556,20.1660879 24.3756813,19.940136 C23.8905973,19.7203741 23.4294918,19.4512778 22.9996739,19.1371127 C22.5929749,18.8419141 22.2307544,18.4900367 21.9240624,18.0922147 L23.2806894,16.2636432 C23.3926981,16.1315006 23.5271952,16.0201414 23.6779874,15.9346939 C23.8265893,15.8426868 23.997357,15.7925399 24.1721873,15.7895691 C24.4270941,15.8009537 24.6701938,15.900092 24.860191,16.0701437 L25.6160261,16.6603174 C25.9201148,16.8892371 26.244462,17.0900167 26.5850454,17.2601663 C27.0408128,17.4544039 27.5335858,17.5468601 28.0288842,17.5310658 C28.8116376,17.5798666 29.5797439,17.3032221 30.1510366,16.7667422 C30.6852818,16.1640404 30.9572481,15.3737912 30.9068717,14.5705216 C30.9244971,14.1987232 30.8189209,13.8314868 30.6064757,13.5256236 C30.3908753,13.2427599 30.1206916,13.0058979 29.8118798,12.8290249 C29.4563921,12.6307214 29.0833573,12.4655483 28.6975076,12.3356009 L27.4087119,11.8808768 C26.9718589,11.7112867 26.5448263,11.5174857 26.1296063,11.3003779 C25.712513,11.0816743 25.3356886,10.7937743 25.0152341,10.4489796 C24.6778833,10.0818498 24.4117377,9.65537294 24.2303284,9.19123204 C24.0121833,8.59354284 23.9102293,7.95979352 23.9299324,7.3239607 C23.9267311,6.48898137 24.0846511,5.66120297 24.3950618,4.88586546 C24.6986008,4.11099603 25.1531276,3.40396813 25.7323084,2.80574452 C26.3345411,2.1910518 27.0524289,1.70115568 27.8447706,1.36417233 C28.7250607,0.996993044 29.6719738,0.815813731 30.625856,0.832048374 C31.1444532,0.830417474 31.6614892,0.888857969 32.1665968,1.00619803 C32.6468011,1.11594741 33.1144,1.27481113 33.5619847,1.48027211 C33.9792928,1.67274394 34.3727723,1.91300659 34.734498,2.19622071 C35.0930593,2.45555251 35.4184848,2.75772312 35.7035173,3.09599396 L34.5019333,4.73106576 Z" id="Path"></path>
                        <path d="M39.7152574,14.8123961 C39.7152574,16.8538171 40.5679944,17.8793651 42.2637782,17.8793651 C42.7325167,17.8942993 43.1997348,17.8187419 43.6397857,17.6568406 C43.9800862,17.5327224 44.3051741,17.3704337 44.608805,17.1730914 L45.3161891,16.6893424 C45.5373594,16.5441146 45.7977032,16.4698473 46.062334,16.4764928 C46.1838446,16.477818 46.3033412,16.5076453 46.411181,16.5635677 C46.5206474,16.6238326 46.6189701,16.7023672 46.7018868,16.7957672 L47.6030748,17.898715 C47.1714844,18.3441236 46.7083924,18.7579887 46.2173771,19.1371127 C45.7801884,19.4720037 45.3092951,19.760581 44.8122991,19.9981859 C44.3277583,20.2190723 43.8210018,20.387726 43.3006289,20.501285 C42.7257141,20.6099098 42.1414849,20.6617598 41.5563941,20.6560847 C40.8057372,20.6666536 40.0607297,20.5251268 39.3664104,20.2400604 C38.7235781,19.9758207 38.1452252,19.5765588 37.6706266,19.0693878 C37.1895177,18.540781 36.8174347,17.9227122 36.5756348,17.2504913 C36.3058906,16.4864213 36.1746374,15.6804817 36.188027,14.870446 C36.2073666,13.4426337 36.5380413,12.0361708 37.1570463,10.748904 C37.4539802,10.1344346 37.8214432,9.55650774 38.2520382,9.02675737 C38.6710419,8.5126975 39.1603384,8.0599945 39.7055672,7.681935 C40.2543092,7.29592881 40.8588271,6.99577566 41.498253,6.79183673 C42.1639476,6.57160846 42.8609819,6.46051942 43.5622641,6.46288738 C44.2064586,6.45203896 44.8471036,6.56028559 45.4518519,6.78216176 C45.9561979,6.96727366 46.4224978,7.24267996 46.8278593,7.59486017 C47.1806419,7.90943398 47.4672196,8.29093767 47.6709061,8.71715798 C47.8509666,9.10214036 47.946767,9.52102179 47.9519218,9.94588058 C47.9564232,10.5336436 47.8306782,11.115127 47.5836943,11.6486772 C47.2698844,12.2380977 46.7964352,12.7275662 46.2173771,13.0612244 C45.4460508,13.5331703 44.6058758,13.8824218 43.7269974,14.0964474 C42.4133958,14.4292983 41.0750367,14.6557828 39.7249476,14.7736961 L39.7152574,14.8123961 Z M43.2812486,9.00740741 C42.9018243,9.00687901 42.5272956,9.0929185 42.1862567,9.25895691 C41.8212942,9.42233294 41.4920487,9.65573033 41.2172373,9.94588058 C40.9226301,10.2712487 40.6747714,10.6359407 40.4807827,11.0294785 C40.2602041,11.4775772 40.0880402,11.9478522 39.9672024,12.4323507 C40.7666801,12.3222176 41.5593034,12.1671719 42.3412998,11.9679517 C42.8270326,11.8500043 43.2958798,11.6712119 43.7366877,11.4358277 C44.0121139,11.2980064 44.241159,11.082773 44.3956208,10.8166289 C44.5046792,10.5902677 44.5609979,10.3421933 44.5603541,10.0910053 C44.5579333,9.96154544 44.5316547,9.83363758 44.4828326,9.71368103 C44.4288708,9.58112369 44.3461321,9.46216704 44.2405777,9.36538171 C44.123564,9.25227642 43.9852282,9.16348592 43.8335896,9.10415722 C43.656128,9.042565 43.4690838,9.01307807 43.2812486,9.01708239 L43.2812486,9.00740741 Z" id="Shape" fill-rule="nonzero"></path>
                        <polygon id="Path" points="49.0856743 20.47226 51.4791521 0.483749056 55.0742139 0.483749056 52.6710459 20.4432351"></polygon>
                        <polygon id="Path" points="55.5393431 20.47226 57.9231307 0.483749056 61.5085022 0.483749056 59.1150244 20.4432351"></polygon>
                        <path d="M65.559003,14.8123961 C65.559003,16.8538171 66.41174,17.8793651 68.1075239,17.8793651 C68.5762622,17.8942993 69.0434803,17.8187419 69.4835313,17.6568406 C69.8070771,17.5294587 70.1157554,17.3672513 70.4040997,17.1730914 L71.1114838,16.6893424 C71.3326541,16.5441146 71.5929979,16.4698473 71.8576287,16.4764928 C71.9791392,16.477818 72.0986359,16.5076453 72.2064757,16.5635677 C72.3159421,16.6238326 72.4142648,16.7023672 72.4971814,16.7957672 L73.4662008,17.918065 C73.0346104,18.3634734 72.5715184,18.7773387 72.0805031,19.1564626 C71.6433144,19.4913536 71.1724212,19.7799309 70.6754251,20.0175359 C70.1908843,20.2384223 69.6841278,20.407076 69.163755,20.5206349 C68.5888401,20.6292598 68.0046109,20.6811098 67.4195201,20.6754347 C66.6688632,20.6860034 65.9238557,20.5444768 65.2295364,20.2594104 C64.5867041,19.9951707 64.0083513,19.5959087 63.5337527,19.0887377 C63.0526437,18.560131 62.6805607,17.9420622 62.4387608,17.2698412 C62.1690166,16.5057712 62.0377634,15.6998317 62.051153,14.8897959 C62.0553357,13.4655864 62.3694387,12.0592937 62.9717214,10.768254 C63.2716964,10.15331 63.6424242,9.57536317 64.0764034,9.04610733 C64.4954071,8.53204747 64.9847037,8.07934447 65.5299324,7.70128496 C66.0786744,7.31527878 66.6831923,7.01512562 67.3226182,6.8111867 C67.9883128,6.59095842 68.6853472,6.47986939 69.3866294,6.48223734 C70.0308238,6.47138892 70.6714688,6.57963556 71.2762171,6.80151171 C71.7805632,6.98662361 72.246863,7.26202992 72.6522246,7.61421013 C73.0050071,7.92878394 73.2915848,8.31028762 73.4952713,8.73650793 C73.6719916,9.12222693 73.7644816,9.54107639 73.7665968,9.96523053 C73.7710982,10.5529936 73.6453533,11.1344769 73.3983694,11.6680272 C73.089568,12.2464758 72.626822,12.7285831 72.0611228,13.0612244 C71.2873948,13.5374733 70.4438543,13.8900289 69.5610529,14.1061224 C68.2474512,14.4389733 66.9090921,14.6654577 65.559003,14.7833711 L65.559003,14.8123961 Z M69.1249942,9.00740741 C68.74557,9.00687901 68.3710412,9.0929185 68.0300023,9.25895691 C67.6650399,9.42233294 67.3357942,9.65573033 67.060983,9.94588058 C66.7663758,10.2712487 66.5185171,10.6359407 66.3245283,11.0294785 C66.1039498,11.4775772 65.9317859,11.9478522 65.810948,12.4323507 C66.6104257,12.3222176 67.403049,12.1671719 68.1850454,11.9679517 C68.6707781,11.8500043 69.1396254,11.6712119 69.5804332,11.4358277 C69.8558594,11.2980064 70.0849047,11.082773 70.2393664,10.8166289 C70.3484249,10.5902677 70.4047434,10.3421933 70.4040997,10.0910053 C70.401679,9.96154544 70.3754002,9.83363758 70.3265781,9.71368103 C70.2726164,9.58112369 70.1898778,9.46216704 70.0843233,9.36538171 C69.9673097,9.25227642 69.8289739,9.16348592 69.6773352,9.10415722 C69.4998737,9.042565 69.3128293,9.01307807 69.1249942,9.01708239 L69.1249942,9.00740741 Z" id="Shape" fill-rule="nonzero"></path>
                        <path d="M79.5807128,9.75238096 C79.8854991,9.16869769 80.2491502,8.61759374 80.6660144,8.10763417 C81.0068502,7.69090323 81.4125513,7.33157207 81.8675984,7.04338624 C82.247198,6.79938549 82.6784996,6.64701067 83.1273236,6.59833711 C83.5761296,6.56205549 84.0267181,6.64203436 84.4354997,6.83053666 L83.7765666,10.3038549 C83.3224576,10.0926585 82.8232663,9.99629972 82.3230376,10.0232804 C81.8566647,10.0604705 81.4148093,10.2471158 81.0633123,10.5554044 C80.6290058,10.9507134 80.2767174,11.4273641 80.0264617,11.9582767 C79.6789216,12.705878 79.409405,13.4872217 79.2221757,14.2899471 L78.4857209,20.47226 L74.9100396,20.47226 L76.5573724,6.656387 L78.43727,6.656387 C78.7557443,6.63859956 79.0696346,6.73847346 79.3190776,6.93696146 C79.5499671,7.17722572 79.6664227,7.50490341 79.638854,7.83673469 L79.5807128,9.75238096 Z" id="Path"></path>
                        <polygon id="Path" points="107.536921 1.05457294 105.182204 20.47226 101.306126 20.47226 102.342977 12.0937263 94.8136967 12.0937263 93.7962264 20.501285 89.9201491 20.501285 92.2748661 1.08359788 96.1509434 1.08359788 95.1819241 9.39440666 102.711204 9.39440666 103.680224 1.08359788"></polygon>
                        <path d="M121.481109,6.67573697 L119.833776,20.47226 L117.992639,20.47226 C117.130212,20.47226 116.694153,20.0562358 116.694153,19.2338624 L116.694153,17.9857899 C116.119143,18.8090758 115.37609,19.5015029 114.51386,20.0175359 C113.76678,20.4433531 112.922467,20.6699269 112.062241,20.6754347 C111.528167,20.6838934 110.999838,20.5644594 110.5215,20.3271353 C110.0679,20.1052746 109.677884,19.7724508 109.387747,19.3596372 C109.065534,18.8610793 108.851012,18.3009024 108.757885,17.7148904 C108.639787,16.9778278 108.639787,16.2267073 108.757885,15.4896448 L109.726904,6.72411187 L113.370417,6.72411187 L112.333567,15.4896448 C112.216522,16.0772448 112.260034,16.6854663 112.459539,17.2504913 C112.645277,17.6050266 113.03043,17.8088371 113.428558,17.7632653 C113.769063,17.7545698 114.10206,17.6614772 114.397578,17.4923659 C114.761718,17.2863706 115.089159,17.0215601 115.366597,16.7086923 C115.703651,16.3339587 115.996291,15.92166 116.238714,15.4799698 C116.515527,14.9732003 116.736463,14.4379454 116.897648,13.8835979 L117.760074,6.72411187 L121.481109,6.67573697 Z" id="Path"></path>
                        <path d="M127.57624,9.12350718 C128.134891,8.35688201 128.831518,7.70071894 129.630561,7.18851096 C130.343836,6.7283402 131.174814,6.48313303 132.024039,6.48223734 C132.554034,6.4726091 133.079779,6.57825329 133.56478,6.79183673 C134.034657,7.00900543 134.441481,7.34194441 134.746983,7.75933484 C135.108278,8.24109492 135.368636,8.79060603 135.512509,9.37505669 C135.707852,10.1299239 135.799136,10.9078707 135.783834,11.6873772 C135.786769,12.4678126 135.705549,13.2462958 135.541579,14.0093727 C135.382581,14.7427788 135.152151,15.4589084 134.853576,16.1475434 C134.579131,16.7644543 134.241401,17.351312 133.845796,17.898715 C133.460848,18.4380036 133.008171,18.9257366 132.498859,19.3499622 C132.029058,19.7518611 131.499443,20.0782704 130.929048,20.3174603 C130.384383,20.5391692 129.80207,20.6541352 129.213883,20.6560847 C128.582543,20.6708298 127.957158,20.5313351 127.392127,20.2497354 C126.87045,19.9849964 126.411273,19.6122943 126.04519,19.1564626 L125.967668,19.466062 C125.894066,19.7476773 125.746937,20.0047497 125.5413,20.2110356 C125.300852,20.3948492 124.999756,20.4812354 124.698253,20.45291 L122.702073,20.45291 L125.0471,0.483749056 L128.622781,0.483749056 L127.57624,9.12350718 Z M126.607221,17.1730914 C126.880763,17.4390088 127.212513,17.6377461 127.57624,17.7535903 C127.911998,17.8585054 128.261299,17.9139148 128.613091,17.918065 C129.141502,17.914819 129.653461,17.7342107 130.06662,17.405291 C130.53355,17.0335463 130.922166,16.573201 131.210063,16.0507937 C131.545471,15.4435853 131.793399,14.792167 131.946518,14.1157974 C132.120481,13.4163467 132.208342,12.6983206 132.208153,11.9776266 C132.261713,11.2675209 132.113953,10.5567049 131.781784,9.92653061 C131.536167,9.50961501 131.083914,9.25793602 130.599581,9.2686319 C130.248507,9.29098166 129.911657,9.41542033 129.630561,9.6266062 C129.266249,9.90504386 128.940418,10.2303636 128.661542,10.5941043 C128.31837,11.0497081 128.022889,11.5392419 127.779734,12.0550264 C127.491778,12.633108 127.255079,13.235257 127.07235,13.8545729 L126.607221,17.1730914 Z" id="Shape" fill-rule="nonzero"></path>
                    </g>
                </g>
            </g>
        </g>
    </g>
</svg>